<svg width="17" height="17" viewBox="0 0 17 17" fill="none" xmlns="http://www.w3.org/2000/svg">
<path d="M1.97607 0C1.71086 0 1.4565 0.105357 1.26897 0.292893C1.08143 0.48043 0.976074 0.734784 0.976074 1C0.976074 1.26522 1.08143 1.51957 1.26897 1.70711C1.4565 1.89464 1.71086 2 1.97607 2H3.19607L3.50107 3.222C3.5041 3.23607 3.50744 3.25007 3.51107 3.264L4.86907 8.694L3.97607 9.586C2.71607 10.846 3.60807 13 5.39007 13H13.9761C14.2413 13 14.4956 12.8946 14.6832 12.7071C14.8707 12.5196 14.9761 12.2652 14.9761 12C14.9761 11.7348 14.8707 11.4804 14.6832 11.2929C14.4956 11.1054 14.2413 11 13.9761 11H5.39007L6.39007 10H12.9761C13.1617 9.9999 13.3437 9.94812 13.5016 9.85045C13.6595 9.75278 13.7871 9.61308 13.8701 9.447L16.8701 3.447C16.9462 3.29458 16.9822 3.12522 16.9745 2.95501C16.9669 2.78479 16.9158 2.61935 16.8263 2.47439C16.7367 2.32944 16.6116 2.20977 16.4628 2.12674C16.314 2.04372 16.1465 2.00009 15.9761 2H5.25607L4.94607 0.757C4.8919 0.540753 4.76703 0.348809 4.59128 0.211655C4.41554 0.0745022 4.199 5.86043e-06 3.97607 0H1.97607ZM14.9761 15.5C14.9761 15.8978 14.818 16.2794 14.5367 16.5607C14.2554 16.842 13.8739 17 13.4761 17C13.0782 17 12.6967 16.842 12.4154 16.5607C12.1341 16.2794 11.9761 15.8978 11.9761 15.5C11.9761 15.1022 12.1341 14.7206 12.4154 14.4393C12.6967 14.158 13.0782 14 13.4761 14C13.8739 14 14.2554 14.158 14.5367 14.4393C14.818 14.7206 14.9761 15.1022 14.9761 15.5ZM5.47607 17C5.8739 17 6.25543 16.842 6.53673 16.5607C6.81804 16.2794 6.97607 15.8978 6.97607 15.5C6.97607 15.1022 6.81804 14.7206 6.53673 14.4393C6.25543 14.158 5.8739 14 5.47607 14C5.07825 14 4.69672 14.158 4.41541 14.4393C4.13411 14.7206 3.97607 15.1022 3.97607 15.5C3.97607 15.8978 4.13411 16.2794 4.41541 16.5607C4.69672 16.842 5.07825 17 5.47607 17Z"/>
</svg>
