<svg width="50" height="50" viewBox="0 0 50 50" fill="none" xmlns="http://www.w3.org/2000/svg">
<path fill-rule="evenodd" clip-rule="evenodd" d="M0 4.16667C0 3.0616 0.376274 2.00179 1.04605 1.22039C1.71582 0.438988 2.62423 0 3.57143 0H46.4286C47.3758 0 48.2842 0.438988 48.954 1.22039C49.6237 2.00179 50 3.0616 50 4.16667C50 5.27174 49.6237 6.33154 48.954 7.11294C48.2842 7.89435 47.3758 8.33333 46.4286 8.33333H3.57143C2.62423 8.33333 1.71582 7.89435 1.04605 7.11294C0.376274 6.33154 0 5.27174 0 4.16667ZM0 25C0 23.8949 0.376274 22.8351 1.04605 22.0537C1.71582 21.2723 2.62423 20.8333 3.57143 20.8333H46.4286C47.3758 20.8333 48.2842 21.2723 48.954 22.0537C49.6237 22.8351 50 23.8949 50 25C50 26.1051 49.6237 27.1649 48.954 27.9463C48.2842 28.7277 47.3758 29.1667 46.4286 29.1667H3.57143C2.62423 29.1667 1.71582 28.7277 1.04605 27.9463C0.376274 27.1649 0 26.1051 0 25ZM0 45.8333C0 44.7283 0.376274 43.6685 1.04605 42.8871C1.71582 42.1057 2.62423 41.6667 3.57143 41.6667H46.4286C47.3758 41.6667 48.2842 42.1057 48.954 42.8871C49.6237 43.6685 50 44.7283 50 45.8333C50 46.9384 49.6237 47.9982 48.954 48.7796C48.2842 49.561 47.3758 50 46.4286 50H3.57143C2.62423 50 1.71582 49.561 1.04605 48.7796C0.376274 47.9982 0 46.9384 0 45.8333Z"/>
</svg>
