<svg width="17" height="17" viewBox="0 0 17 17" fill="none" xmlns="http://www.w3.org/2000/svg">
<path d="M16.146 11.44C14.6646 12.1101 13.014 12.3129 11.4144 12.0213C9.81477 11.7297 8.34197 10.9576 7.19222 9.80782C6.04247 8.65807 5.27036 7.18527 4.97877 5.58564C4.68717 3.986 4.88994 2.33549 5.56004 0.854004C4.3806 1.38702 3.34808 2.1982 2.55105 3.21796C1.75401 4.23773 1.21627 5.43563 0.983952 6.70889C0.751632 7.98216 0.831671 9.29278 1.2172 10.5283C1.60273 11.7638 2.28224 12.8874 3.19744 13.8026C4.11264 14.7178 5.2362 15.3973 6.47174 15.7828C7.70727 16.1684 9.01789 16.2484 10.2912 16.0161C11.5644 15.7838 12.7623 15.246 13.7821 14.449C14.8018 13.652 15.613 12.6194 16.146 11.44Z"/>
</svg>
