<svg width="4" height="17" viewBox="0 0 4 17" fill="none" xmlns="http://www.w3.org/2000/svg">
<path d="M2 4.5C1.46957 4.5 0.96086 4.28929 0.585787 3.91421C0.210714 3.53914 0 3.03043 0 2.5C0 1.96957 0.210714 1.46086 0.585787 1.08579C0.96086 0.710714 1.46957 0.5 2 0.5C2.53043 0.5 3.03914 0.710714 3.41421 1.08579C3.78929 1.46086 4 1.96957 4 2.5C4 3.03043 3.78929 3.53914 3.41421 3.91421C3.03914 4.28929 2.53043 4.5 2 4.5ZM2 10.5C1.46957 10.5 0.96086 10.2893 0.585787 9.91421C0.210714 9.53914 0 9.03043 0 8.5C0 7.96957 0.210714 7.46086 0.585787 7.08579C0.96086 6.71071 1.46957 6.5 2 6.5C2.53043 6.5 3.03914 6.71071 3.41421 7.08579C3.78929 7.46086 4 7.96957 4 8.5C4 9.03043 3.78929 9.53914 3.41421 9.91421C3.03914 10.2893 2.53043 10.5 2 10.5ZM2 16.5C1.46957 16.5 0.96086 16.2893 0.585787 15.9142C0.210714 15.5391 0 15.0304 0 14.5C0 13.9696 0.210714 13.4609 0.585787 13.0858C0.96086 12.7107 1.46957 12.5 2 12.5C2.53043 12.5 3.03914 12.7107 3.41421 13.0858C3.78929 13.4609 4 13.9696 4 14.5C4 15.0304 3.78929 15.5391 3.41421 15.9142C3.03914 16.2893 2.53043 16.5 2 16.5Z" />
</svg>
