<svg width="15" height="15" viewBox="0 0 15 15" fill="none" xmlns="http://www.w3.org/2000/svg">
<path d="M11.5616 1.09831C11.7461 0.907288 11.9668 0.754923 12.2108 0.650105C12.4548 0.545287 12.7172 0.490115 12.9828 0.487807C13.2483 0.4855 13.5117 0.536103 13.7575 0.636665C14.0033 0.737227 14.2266 0.885733 14.4144 1.07352C14.6022 1.2613 14.7507 1.48461 14.8512 1.7304C14.9518 1.97619 15.0024 2.23955 15.0001 2.50511C14.9978 2.77067 14.9426 3.03311 14.8378 3.27712C14.733 3.52113 14.5806 3.74181 14.3896 3.92631L13.5966 4.71931L10.7686 1.89131L11.5616 1.09831ZM9.35459 3.30531L0.975586 11.6843V14.5123H3.80359L12.1836 6.13331L9.35459 3.30531Z"/>
</svg>
