<svg width="16" height="17" viewBox="0 0 16 17" fill="none" xmlns="http://www.w3.org/2000/svg">
<path fill-rule="evenodd" clip-rule="evenodd" d="M5.99414 2.5065C4.93327 2.5065 3.91586 2.92793 3.16571 3.67808C2.41557 4.42822 1.99414 5.44564 1.99414 6.5065C1.99414 7.56737 2.41557 8.58479 3.16571 9.33493C3.91586 10.0851 4.93327 10.5065 5.99414 10.5065C7.05501 10.5065 8.07242 10.0851 8.82257 9.33493C9.57271 8.58479 9.99414 7.56737 9.99414 6.5065C9.99414 5.44564 9.57271 4.42822 8.82257 3.67808C8.07242 2.92793 7.05501 2.5065 5.99414 2.5065ZM-0.00585926 6.5065C-0.00597976 5.56221 0.216783 4.63122 0.644312 3.78925C1.07184 2.94727 1.69206 2.2181 2.45454 1.66103C3.21701 1.10396 4.1002 0.734716 5.03229 0.583337C5.96437 0.431957 6.91902 0.502715 7.8186 0.789854C8.71819 1.07699 9.53729 1.57241 10.2093 2.2358C10.8813 2.89919 11.3873 3.71184 11.686 4.60764C11.9847 5.50344 12.0678 6.4571 11.9285 7.39106C11.7891 8.32502 11.4313 9.2129 10.8841 9.9825L15.7011 14.7995C15.8833 14.9881 15.9841 15.2407 15.9818 15.5029C15.9795 15.7651 15.8744 16.0159 15.689 16.2013C15.5036 16.3867 15.2527 16.4919 14.9905 16.4942C14.7283 16.4965 14.4757 16.3957 14.2871 16.2135L9.47114 11.3975C8.5735 12.0358 7.51749 12.4147 6.41882 12.4926C5.32014 12.5706 4.22121 12.3446 3.24244 11.8395C2.26367 11.3343 1.44283 10.5695 0.869864 9.62885C0.296901 8.68818 -0.00607343 7.60794 -0.00585926 6.5065Z" fill="#F1FCE9"/>
</svg>
