<svg width="15" height="15" viewBox="0 0 15 15" fill="none" xmlns="http://www.w3.org/2000/svg">
<path d="M7.146 1.5V2.16667M7.146 12.8333V13.5M13.146 7.5H12.4793M1.81266 7.5H1.146M11.3887 11.7427L10.9173 11.2713M3.37466 3.72867L2.90333 3.25733M11.3887 3.25733L10.9173 3.72867M3.37466 11.2713L2.90333 11.7427M9.81266 7.5C9.81266 8.20724 9.53171 8.88552 9.03161 9.38562C8.53152 9.88572 7.85324 10.1667 7.146 10.1667C6.43875 10.1667 5.76048 9.88572 5.26038 9.38562C4.76028 8.88552 4.47933 8.20724 4.47933 7.5C4.47933 6.79276 4.76028 6.11448 5.26038 5.61438C5.76048 5.11428 6.43875 4.83333 7.146 4.83333C7.85324 4.83333 8.53152 5.11428 9.03161 5.61438C9.53171 6.11448 9.81266 6.79276 9.81266 7.5Z" stroke="#F1FCE9" stroke-width="2" stroke-linecap="round" stroke-linejoin="round"/>
</svg>
